<mxfile host="app.diagrams.net" modified="2024-04-29T19:52:36.815Z" agent="Mozilla/5.0 (Windows NT 10.0; Win64; x64) AppleWebKit/537.36 (KHTML, like Gecko) Chrome/124.0.0.0 Safari/537.36" etag="djnHTrgq9JE0hWt3dQOc" version="24.2.5" type="device">
  <diagram name="Страница — 1" id="jQywgSG6DH7RQjWW9mtv">
    <mxGraphModel dx="5396" dy="464" grid="1" gridSize="10" guides="1" tooltips="1" connect="1" arrows="1" fold="1" page="1" pageScale="1" pageWidth="827" pageHeight="1169" math="0" shadow="0">
      <root>
        <mxCell id="0" />
        <mxCell id="1" parent="0" />
        <mxCell id="feCrvd7pG5GOB3gKW0TG-1" style="edgeStyle=orthogonalEdgeStyle;rounded=0;orthogonalLoop=1;jettySize=auto;html=1;entryX=0.5;entryY=0;entryDx=0;entryDy=0;" parent="1" source="feCrvd7pG5GOB3gKW0TG-2" target="feCrvd7pG5GOB3gKW0TG-4" edge="1">
          <mxGeometry relative="1" as="geometry" />
        </mxCell>
        <mxCell id="feCrvd7pG5GOB3gKW0TG-2" value="&lt;font style=&quot;font-size: 18px;&quot;&gt;Начало&lt;/font&gt;" style="ellipse;whiteSpace=wrap;html=1;" parent="1" vertex="1">
          <mxGeometry x="-1760" y="305" width="120" height="80" as="geometry" />
        </mxCell>
        <mxCell id="feCrvd7pG5GOB3gKW0TG-3" style="edgeStyle=orthogonalEdgeStyle;rounded=0;orthogonalLoop=1;jettySize=auto;html=1;exitX=0.5;exitY=1;exitDx=0;exitDy=0;entryX=0.5;entryY=0;entryDx=0;entryDy=0;" parent="1" source="feCrvd7pG5GOB3gKW0TG-4" target="feCrvd7pG5GOB3gKW0TG-7" edge="1">
          <mxGeometry relative="1" as="geometry">
            <mxPoint x="-1716.5" y="505" as="targetPoint" />
          </mxGeometry>
        </mxCell>
        <mxCell id="feCrvd7pG5GOB3gKW0TG-4" value="&lt;font style=&quot;font-size: 12px;&quot;&gt;Инициализация переменных: res = 0, h = (b - a) / partition, i = 0&lt;/font&gt;&lt;div&gt;&lt;div&gt;&lt;font style=&quot;font-size: 12px;&quot;&gt;Переменные из аргументов:function, a, b, accuracy, modify&amp;nbsp;&lt;/font&gt;&lt;/div&gt;&lt;/div&gt;" style="shape=parallelogram;perimeter=parallelogramPerimeter;whiteSpace=wrap;html=1;fixedSize=1;" parent="1" vertex="1">
          <mxGeometry x="-1989" y="415" width="590" height="60" as="geometry" />
        </mxCell>
        <mxCell id="feCrvd7pG5GOB3gKW0TG-5" value="Метод трапеций" style="rounded=0;whiteSpace=wrap;html=1;" parent="1" vertex="1">
          <mxGeometry x="-1764.5" y="205" width="134.5" height="60" as="geometry" />
        </mxCell>
        <mxCell id="feCrvd7pG5GOB3gKW0TG-6" style="edgeStyle=orthogonalEdgeStyle;rounded=0;orthogonalLoop=1;jettySize=auto;html=1;exitX=0.5;exitY=1;exitDx=0;exitDy=0;entryX=0.5;entryY=0;entryDx=0;entryDy=0;" parent="1" source="feCrvd7pG5GOB3gKW0TG-7" target="feCrvd7pG5GOB3gKW0TG-8" edge="1">
          <mxGeometry relative="1" as="geometry" />
        </mxCell>
        <mxCell id="feCrvd7pG5GOB3gKW0TG-7" value="i &amp;lt; n" style="shape=hexagon;perimeter=hexagonPerimeter2;whiteSpace=wrap;html=1;fixedSize=1;size=40;" parent="1" vertex="1">
          <mxGeometry x="-1829.4" y="515" width="200" height="55" as="geometry" />
        </mxCell>
        <mxCell id="feCrvd7pG5GOB3gKW0TG-26" value="" style="edgeStyle=orthogonalEdgeStyle;rounded=0;orthogonalLoop=1;jettySize=auto;html=1;" parent="1" source="feCrvd7pG5GOB3gKW0TG-8" target="feCrvd7pG5GOB3gKW0TG-24" edge="1">
          <mxGeometry relative="1" as="geometry" />
        </mxCell>
        <mxCell id="feCrvd7pG5GOB3gKW0TG-8" value="x = a + h* i" style="shape=parallelogram;perimeter=parallelogramPerimeter;whiteSpace=wrap;html=1;fixedSize=1;" parent="1" vertex="1">
          <mxGeometry x="-1816.9" y="590" width="175" height="35" as="geometry" />
        </mxCell>
        <mxCell id="feCrvd7pG5GOB3gKW0TG-10" value="Math.abs(0.5*res) &amp;gt; 60000" style="rhombus;whiteSpace=wrap;html=1;" parent="1" vertex="1">
          <mxGeometry x="-1872.47" y="790" width="272.25" height="80" as="geometry" />
        </mxCell>
        <mxCell id="feCrvd7pG5GOB3gKW0TG-33" value="" style="edgeStyle=orthogonalEdgeStyle;rounded=0;orthogonalLoop=1;jettySize=auto;html=1;" parent="1" source="feCrvd7pG5GOB3gKW0TG-11" target="feCrvd7pG5GOB3gKW0TG-21" edge="1">
          <mxGeometry relative="1" as="geometry" />
        </mxCell>
        <mxCell id="feCrvd7pG5GOB3gKW0TG-11" value="Выкинуть ошибку" style="rounded=0;whiteSpace=wrap;html=1;" parent="1" vertex="1">
          <mxGeometry x="-1856.34" y="900" width="110" height="20.04" as="geometry" />
        </mxCell>
        <mxCell id="feCrvd7pG5GOB3gKW0TG-12" value="" style="endArrow=classic;html=1;rounded=0;exitX=0.5;exitY=1;exitDx=0;exitDy=0;entryX=0.5;entryY=0;entryDx=0;entryDy=0;" parent="1" source="feCrvd7pG5GOB3gKW0TG-10" target="feCrvd7pG5GOB3gKW0TG-11" edge="1">
          <mxGeometry width="50" height="50" relative="1" as="geometry">
            <mxPoint x="-1746.34" y="820" as="sourcePoint" />
            <mxPoint x="-1696.34" y="770" as="targetPoint" />
          </mxGeometry>
        </mxCell>
        <mxCell id="feCrvd7pG5GOB3gKW0TG-14" value="" style="endArrow=classic;html=1;rounded=0;exitX=0.5;exitY=1;exitDx=0;exitDy=0;" parent="1" source="feCrvd7pG5GOB3gKW0TG-10" target="feCrvd7pG5GOB3gKW0TG-15" edge="1">
          <mxGeometry width="50" height="50" relative="1" as="geometry">
            <mxPoint x="-1556.34" y="980" as="sourcePoint" />
            <mxPoint x="-1536.34" y="860" as="targetPoint" />
          </mxGeometry>
        </mxCell>
        <mxCell id="feCrvd7pG5GOB3gKW0TG-32" value="" style="edgeStyle=orthogonalEdgeStyle;rounded=0;orthogonalLoop=1;jettySize=auto;html=1;" parent="1" source="feCrvd7pG5GOB3gKW0TG-15" target="feCrvd7pG5GOB3gKW0TG-21" edge="1">
          <mxGeometry relative="1" as="geometry" />
        </mxCell>
        <mxCell id="feCrvd7pG5GOB3gKW0TG-15" value="return 0.5*res" style="rounded=0;whiteSpace=wrap;html=1;" parent="1" vertex="1">
          <mxGeometry x="-1664.72" y="895" width="78.38" height="30.04" as="geometry" />
        </mxCell>
        <mxCell id="feCrvd7pG5GOB3gKW0TG-21" value="конец" style="ellipse;whiteSpace=wrap;html=1;" parent="1" vertex="1">
          <mxGeometry x="-1774.0000000000002" y="1010" width="120" height="80" as="geometry" />
        </mxCell>
        <mxCell id="feCrvd7pG5GOB3gKW0TG-23" value="" style="endArrow=classic;html=1;rounded=0;exitX=1;exitY=0.5;exitDx=0;exitDy=0;entryX=1;entryY=0.5;entryDx=0;entryDy=0;" parent="1" source="feCrvd7pG5GOB3gKW0TG-7" target="feCrvd7pG5GOB3gKW0TG-10" edge="1">
          <mxGeometry width="50" height="50" relative="1" as="geometry">
            <mxPoint x="-1680" y="605" as="sourcePoint" />
            <mxPoint x="-1390" y="1023.13330078125" as="targetPoint" />
            <Array as="points">
              <mxPoint x="-1430" y="540" />
              <mxPoint x="-1430" y="830" />
            </Array>
          </mxGeometry>
        </mxCell>
        <mxCell id="feCrvd7pG5GOB3gKW0TG-28" value="" style="edgeStyle=orthogonalEdgeStyle;rounded=0;orthogonalLoop=1;jettySize=auto;html=1;" parent="1" source="feCrvd7pG5GOB3gKW0TG-24" target="feCrvd7pG5GOB3gKW0TG-27" edge="1">
          <mxGeometry relative="1" as="geometry" />
        </mxCell>
        <mxCell id="feCrvd7pG5GOB3gKW0TG-24" value="res += h *(function.apply(x) + function.apply(x + h))" style="shape=parallelogram;perimeter=parallelogramPerimeter;whiteSpace=wrap;html=1;fixedSize=1;" parent="1" vertex="1">
          <mxGeometry x="-1954.4" y="640" width="450" height="30" as="geometry" />
        </mxCell>
        <mxCell id="feCrvd7pG5GOB3gKW0TG-27" value="i ++" style="shape=parallelogram;perimeter=parallelogramPerimeter;whiteSpace=wrap;html=1;fixedSize=1;" parent="1" vertex="1">
          <mxGeometry x="-1816.9" y="690" width="175" height="35" as="geometry" />
        </mxCell>
        <mxCell id="feCrvd7pG5GOB3gKW0TG-31" value="" style="endArrow=classic;html=1;rounded=0;exitX=0;exitY=0.5;exitDx=0;exitDy=0;entryX=0;entryY=0.5;entryDx=0;entryDy=0;" parent="1" source="feCrvd7pG5GOB3gKW0TG-27" target="feCrvd7pG5GOB3gKW0TG-7" edge="1">
          <mxGeometry width="50" height="50" relative="1" as="geometry">
            <mxPoint x="-1750" y="810" as="sourcePoint" />
            <mxPoint x="-1931.066650390625" y="710" as="targetPoint" />
            <Array as="points">
              <mxPoint x="-2020" y="710" />
              <mxPoint x="-2020" y="540" />
            </Array>
          </mxGeometry>
        </mxCell>
        <mxCell id="feCrvd7pG5GOB3gKW0TG-38" value="Метод Симпсона" style="rounded=0;whiteSpace=wrap;html=1;" parent="1" vertex="1">
          <mxGeometry x="-2414.5" y="212.5" width="134.5" height="57.5" as="geometry" />
        </mxCell>
        <mxCell id="feCrvd7pG5GOB3gKW0TG-100" style="edgeStyle=orthogonalEdgeStyle;rounded=0;orthogonalLoop=1;jettySize=auto;html=1;entryX=0.5;entryY=0;entryDx=0;entryDy=0;" parent="1" source="feCrvd7pG5GOB3gKW0TG-101" target="feCrvd7pG5GOB3gKW0TG-103" edge="1">
          <mxGeometry relative="1" as="geometry" />
        </mxCell>
        <mxCell id="feCrvd7pG5GOB3gKW0TG-101" value="&lt;font style=&quot;font-size: 18px;&quot;&gt;Начало&lt;/font&gt;" style="ellipse;whiteSpace=wrap;html=1;" parent="1" vertex="1">
          <mxGeometry x="-4610" y="320" width="120" height="80" as="geometry" />
        </mxCell>
        <mxCell id="feCrvd7pG5GOB3gKW0TG-102" style="edgeStyle=orthogonalEdgeStyle;rounded=0;orthogonalLoop=1;jettySize=auto;html=1;exitX=0.5;exitY=1;exitDx=0;exitDy=0;entryX=0.5;entryY=0;entryDx=0;entryDy=0;" parent="1" source="feCrvd7pG5GOB3gKW0TG-103" target="feCrvd7pG5GOB3gKW0TG-106" edge="1">
          <mxGeometry relative="1" as="geometry">
            <mxPoint x="-4566.5" y="520" as="targetPoint" />
          </mxGeometry>
        </mxCell>
        <mxCell id="feCrvd7pG5GOB3gKW0TG-103" value="&lt;font style=&quot;font-size: 12px;&quot;&gt;Инициализация переменных: res = 0, h = (b - a) / n, i = 0&lt;/font&gt;&lt;div&gt;&lt;div&gt;&lt;font style=&quot;font-size: 12px;&quot;&gt;Переменные из аргументов:function, a, b, n, modify&amp;nbsp;&lt;/font&gt;&lt;/div&gt;&lt;/div&gt;" style="shape=parallelogram;perimeter=parallelogramPerimeter;whiteSpace=wrap;html=1;fixedSize=1;" parent="1" vertex="1">
          <mxGeometry x="-4839" y="430" width="590" height="60" as="geometry" />
        </mxCell>
        <mxCell id="feCrvd7pG5GOB3gKW0TG-104" value="Полином Лагранжа" style="rounded=0;whiteSpace=wrap;html=1;" parent="1" vertex="1">
          <mxGeometry x="-4614.5" y="220" width="134.5" height="60" as="geometry" />
        </mxCell>
        <mxCell id="feCrvd7pG5GOB3gKW0TG-105" style="edgeStyle=orthogonalEdgeStyle;rounded=0;orthogonalLoop=1;jettySize=auto;html=1;exitX=0.5;exitY=1;exitDx=0;exitDy=0;entryX=0.5;entryY=0;entryDx=0;entryDy=0;" parent="1" source="feCrvd7pG5GOB3gKW0TG-106" target="feCrvd7pG5GOB3gKW0TG-108" edge="1">
          <mxGeometry relative="1" as="geometry" />
        </mxCell>
        <mxCell id="feCrvd7pG5GOB3gKW0TG-106" value="i&amp;lt;n" style="shape=hexagon;perimeter=hexagonPerimeter2;whiteSpace=wrap;html=1;fixedSize=1;size=40;" parent="1" vertex="1">
          <mxGeometry x="-4679.4" y="530" width="200" height="55" as="geometry" />
        </mxCell>
        <mxCell id="feCrvd7pG5GOB3gKW0TG-107" value="" style="edgeStyle=orthogonalEdgeStyle;rounded=0;orthogonalLoop=1;jettySize=auto;html=1;" parent="1" source="feCrvd7pG5GOB3gKW0TG-108" target="feCrvd7pG5GOB3gKW0TG-119" edge="1">
          <mxGeometry relative="1" as="geometry" />
        </mxCell>
        <mxCell id="feCrvd7pG5GOB3gKW0TG-108" value="x = a + h * i" style="shape=parallelogram;perimeter=parallelogramPerimeter;whiteSpace=wrap;html=1;fixedSize=1;" parent="1" vertex="1">
          <mxGeometry x="-4666.9" y="605" width="175" height="35" as="geometry" />
        </mxCell>
        <mxCell id="feCrvd7pG5GOB3gKW0TG-109" value="Math.abs(res) &amp;gt; 60000" style="rhombus;whiteSpace=wrap;html=1;" parent="1" vertex="1">
          <mxGeometry x="-4722.47" y="805" width="272.25" height="80" as="geometry" />
        </mxCell>
        <mxCell id="feCrvd7pG5GOB3gKW0TG-110" value="" style="edgeStyle=orthogonalEdgeStyle;rounded=0;orthogonalLoop=1;jettySize=auto;html=1;" parent="1" source="feCrvd7pG5GOB3gKW0TG-111" target="feCrvd7pG5GOB3gKW0TG-116" edge="1">
          <mxGeometry relative="1" as="geometry" />
        </mxCell>
        <mxCell id="feCrvd7pG5GOB3gKW0TG-111" value="Выкинуть ошибку" style="rounded=0;whiteSpace=wrap;html=1;" parent="1" vertex="1">
          <mxGeometry x="-4706.34" y="915" width="110" height="20.04" as="geometry" />
        </mxCell>
        <mxCell id="feCrvd7pG5GOB3gKW0TG-112" value="" style="endArrow=classic;html=1;rounded=0;exitX=0.5;exitY=1;exitDx=0;exitDy=0;entryX=0.5;entryY=0;entryDx=0;entryDy=0;" parent="1" source="feCrvd7pG5GOB3gKW0TG-109" target="feCrvd7pG5GOB3gKW0TG-111" edge="1">
          <mxGeometry width="50" height="50" relative="1" as="geometry">
            <mxPoint x="-4596.34" y="835" as="sourcePoint" />
            <mxPoint x="-4546.34" y="785" as="targetPoint" />
          </mxGeometry>
        </mxCell>
        <mxCell id="feCrvd7pG5GOB3gKW0TG-113" value="" style="endArrow=classic;html=1;rounded=0;exitX=0.5;exitY=1;exitDx=0;exitDy=0;" parent="1" source="feCrvd7pG5GOB3gKW0TG-109" target="feCrvd7pG5GOB3gKW0TG-115" edge="1">
          <mxGeometry width="50" height="50" relative="1" as="geometry">
            <mxPoint x="-4406.34" y="995" as="sourcePoint" />
            <mxPoint x="-4386.34" y="875" as="targetPoint" />
          </mxGeometry>
        </mxCell>
        <mxCell id="feCrvd7pG5GOB3gKW0TG-114" value="" style="edgeStyle=orthogonalEdgeStyle;rounded=0;orthogonalLoop=1;jettySize=auto;html=1;" parent="1" source="feCrvd7pG5GOB3gKW0TG-115" target="feCrvd7pG5GOB3gKW0TG-116" edge="1">
          <mxGeometry relative="1" as="geometry" />
        </mxCell>
        <mxCell id="feCrvd7pG5GOB3gKW0TG-115" value="return res" style="rounded=0;whiteSpace=wrap;html=1;" parent="1" vertex="1">
          <mxGeometry x="-4514.72" y="910" width="78.38" height="30.04" as="geometry" />
        </mxCell>
        <mxCell id="feCrvd7pG5GOB3gKW0TG-116" value="конец" style="ellipse;whiteSpace=wrap;html=1;" parent="1" vertex="1">
          <mxGeometry x="-4624" y="1025" width="120" height="80" as="geometry" />
        </mxCell>
        <mxCell id="feCrvd7pG5GOB3gKW0TG-117" value="" style="endArrow=classic;html=1;rounded=0;exitX=1;exitY=0.5;exitDx=0;exitDy=0;entryX=1;entryY=0.5;entryDx=0;entryDy=0;" parent="1" source="feCrvd7pG5GOB3gKW0TG-106" target="feCrvd7pG5GOB3gKW0TG-109" edge="1">
          <mxGeometry width="50" height="50" relative="1" as="geometry">
            <mxPoint x="-4530" y="620" as="sourcePoint" />
            <mxPoint x="-4240" y="1038.13330078125" as="targetPoint" />
            <Array as="points">
              <mxPoint x="-4280" y="555" />
              <mxPoint x="-4280" y="845" />
            </Array>
          </mxGeometry>
        </mxCell>
        <mxCell id="feCrvd7pG5GOB3gKW0TG-118" value="" style="edgeStyle=orthogonalEdgeStyle;rounded=0;orthogonalLoop=1;jettySize=auto;html=1;" parent="1" source="feCrvd7pG5GOB3gKW0TG-119" target="feCrvd7pG5GOB3gKW0TG-120" edge="1">
          <mxGeometry relative="1" as="geometry" />
        </mxCell>
        <mxCell id="feCrvd7pG5GOB3gKW0TG-119" value="res += h * function.apply(x)" style="shape=parallelogram;perimeter=parallelogramPerimeter;whiteSpace=wrap;html=1;fixedSize=1;" parent="1" vertex="1">
          <mxGeometry x="-4696.599999999999" y="655" width="234.4" height="25" as="geometry" />
        </mxCell>
        <mxCell id="feCrvd7pG5GOB3gKW0TG-120" value="i++" style="shape=parallelogram;perimeter=parallelogramPerimeter;whiteSpace=wrap;html=1;fixedSize=1;" parent="1" vertex="1">
          <mxGeometry x="-4666.9" y="705" width="175" height="35" as="geometry" />
        </mxCell>
        <mxCell id="feCrvd7pG5GOB3gKW0TG-121" value="" style="endArrow=classic;html=1;rounded=0;exitX=0;exitY=0.5;exitDx=0;exitDy=0;entryX=0;entryY=0.5;entryDx=0;entryDy=0;" parent="1" source="feCrvd7pG5GOB3gKW0TG-120" target="feCrvd7pG5GOB3gKW0TG-106" edge="1">
          <mxGeometry width="50" height="50" relative="1" as="geometry">
            <mxPoint x="-4600" y="825" as="sourcePoint" />
            <mxPoint x="-4781.066650390625" y="725" as="targetPoint" />
            <Array as="points">
              <mxPoint x="-4870" y="725" />
              <mxPoint x="-4870" y="555" />
            </Array>
          </mxGeometry>
        </mxCell>
        <mxCell id="feCrvd7pG5GOB3gKW0TG-122" style="edgeStyle=orthogonalEdgeStyle;rounded=0;orthogonalLoop=1;jettySize=auto;html=1;entryX=0.5;entryY=0;entryDx=0;entryDy=0;" parent="1" source="feCrvd7pG5GOB3gKW0TG-123" target="feCrvd7pG5GOB3gKW0TG-125" edge="1">
          <mxGeometry relative="1" as="geometry" />
        </mxCell>
        <mxCell id="feCrvd7pG5GOB3gKW0TG-123" value="&lt;font style=&quot;font-size: 18px;&quot;&gt;Начало&lt;/font&gt;" style="ellipse;whiteSpace=wrap;html=1;" parent="1" vertex="1">
          <mxGeometry x="-3840" y="312.5" width="120" height="80" as="geometry" />
        </mxCell>
        <mxCell id="feCrvd7pG5GOB3gKW0TG-124" style="edgeStyle=orthogonalEdgeStyle;rounded=0;orthogonalLoop=1;jettySize=auto;html=1;exitX=0.5;exitY=1;exitDx=0;exitDy=0;entryX=0.5;entryY=0;entryDx=0;entryDy=0;" parent="1" source="feCrvd7pG5GOB3gKW0TG-125" target="feCrvd7pG5GOB3gKW0TG-128" edge="1">
          <mxGeometry relative="1" as="geometry">
            <mxPoint x="-3796.5" y="512.5" as="targetPoint" />
          </mxGeometry>
        </mxCell>
        <mxCell id="feCrvd7pG5GOB3gKW0TG-125" value="&lt;font style=&quot;font-size: 12px;&quot;&gt;Инициализация переменных: res = 0, h = (b - a) / n, i = 0&lt;/font&gt;&lt;div&gt;&lt;div&gt;&lt;font style=&quot;font-size: 12px;&quot;&gt;Переменные из аргументов:function, a, b, n, modify&amp;nbsp;&lt;/font&gt;&lt;/div&gt;&lt;/div&gt;" style="shape=parallelogram;perimeter=parallelogramPerimeter;whiteSpace=wrap;html=1;fixedSize=1;" parent="1" vertex="1">
          <mxGeometry x="-4069" y="422.5" width="590" height="60" as="geometry" />
        </mxCell>
        <mxCell id="feCrvd7pG5GOB3gKW0TG-126" value="Метод центральных прямоугольников" style="rounded=0;whiteSpace=wrap;html=1;" parent="1" vertex="1">
          <mxGeometry x="-3844.5" y="212.5" width="134.5" height="60" as="geometry" />
        </mxCell>
        <mxCell id="feCrvd7pG5GOB3gKW0TG-127" style="edgeStyle=orthogonalEdgeStyle;rounded=0;orthogonalLoop=1;jettySize=auto;html=1;exitX=0.5;exitY=1;exitDx=0;exitDy=0;entryX=0.5;entryY=0;entryDx=0;entryDy=0;" parent="1" source="feCrvd7pG5GOB3gKW0TG-128" target="feCrvd7pG5GOB3gKW0TG-130" edge="1">
          <mxGeometry relative="1" as="geometry" />
        </mxCell>
        <mxCell id="feCrvd7pG5GOB3gKW0TG-128" value="i&amp;lt;n" style="shape=hexagon;perimeter=hexagonPerimeter2;whiteSpace=wrap;html=1;fixedSize=1;size=40;" parent="1" vertex="1">
          <mxGeometry x="-3909.3999999999996" y="522.5" width="200" height="55" as="geometry" />
        </mxCell>
        <mxCell id="feCrvd7pG5GOB3gKW0TG-129" value="" style="edgeStyle=orthogonalEdgeStyle;rounded=0;orthogonalLoop=1;jettySize=auto;html=1;" parent="1" source="feCrvd7pG5GOB3gKW0TG-130" target="feCrvd7pG5GOB3gKW0TG-141" edge="1">
          <mxGeometry relative="1" as="geometry" />
        </mxCell>
        <mxCell id="feCrvd7pG5GOB3gKW0TG-130" value="x = a + h * i" style="shape=parallelogram;perimeter=parallelogramPerimeter;whiteSpace=wrap;html=1;fixedSize=1;" parent="1" vertex="1">
          <mxGeometry x="-3896.8999999999996" y="597.5" width="175" height="35" as="geometry" />
        </mxCell>
        <mxCell id="feCrvd7pG5GOB3gKW0TG-131" value="Math.abs(res) &amp;gt; 60000" style="rhombus;whiteSpace=wrap;html=1;" parent="1" vertex="1">
          <mxGeometry x="-3952.4700000000003" y="797.5" width="272.25" height="80" as="geometry" />
        </mxCell>
        <mxCell id="feCrvd7pG5GOB3gKW0TG-132" value="" style="edgeStyle=orthogonalEdgeStyle;rounded=0;orthogonalLoop=1;jettySize=auto;html=1;" parent="1" source="feCrvd7pG5GOB3gKW0TG-133" target="feCrvd7pG5GOB3gKW0TG-138" edge="1">
          <mxGeometry relative="1" as="geometry" />
        </mxCell>
        <mxCell id="feCrvd7pG5GOB3gKW0TG-133" value="Выкинуть ошибку" style="rounded=0;whiteSpace=wrap;html=1;" parent="1" vertex="1">
          <mxGeometry x="-3936.34" y="907.5" width="110" height="20.04" as="geometry" />
        </mxCell>
        <mxCell id="feCrvd7pG5GOB3gKW0TG-134" value="" style="endArrow=classic;html=1;rounded=0;exitX=0.5;exitY=1;exitDx=0;exitDy=0;entryX=0.5;entryY=0;entryDx=0;entryDy=0;" parent="1" source="feCrvd7pG5GOB3gKW0TG-131" target="feCrvd7pG5GOB3gKW0TG-133" edge="1">
          <mxGeometry width="50" height="50" relative="1" as="geometry">
            <mxPoint x="-3826.34" y="827.5" as="sourcePoint" />
            <mxPoint x="-3776.34" y="777.5" as="targetPoint" />
          </mxGeometry>
        </mxCell>
        <mxCell id="feCrvd7pG5GOB3gKW0TG-135" value="" style="endArrow=classic;html=1;rounded=0;exitX=0.5;exitY=1;exitDx=0;exitDy=0;" parent="1" source="feCrvd7pG5GOB3gKW0TG-131" target="feCrvd7pG5GOB3gKW0TG-137" edge="1">
          <mxGeometry width="50" height="50" relative="1" as="geometry">
            <mxPoint x="-3636.34" y="987.5" as="sourcePoint" />
            <mxPoint x="-3616.34" y="867.5" as="targetPoint" />
          </mxGeometry>
        </mxCell>
        <mxCell id="feCrvd7pG5GOB3gKW0TG-136" value="" style="edgeStyle=orthogonalEdgeStyle;rounded=0;orthogonalLoop=1;jettySize=auto;html=1;" parent="1" source="feCrvd7pG5GOB3gKW0TG-137" target="feCrvd7pG5GOB3gKW0TG-138" edge="1">
          <mxGeometry relative="1" as="geometry" />
        </mxCell>
        <mxCell id="feCrvd7pG5GOB3gKW0TG-137" value="return res" style="rounded=0;whiteSpace=wrap;html=1;" parent="1" vertex="1">
          <mxGeometry x="-3744.7200000000003" y="902.5" width="78.38" height="30.04" as="geometry" />
        </mxCell>
        <mxCell id="feCrvd7pG5GOB3gKW0TG-138" value="конец" style="ellipse;whiteSpace=wrap;html=1;" parent="1" vertex="1">
          <mxGeometry x="-3854" y="1017.5" width="120" height="80" as="geometry" />
        </mxCell>
        <mxCell id="feCrvd7pG5GOB3gKW0TG-139" value="" style="endArrow=classic;html=1;rounded=0;exitX=1;exitY=0.5;exitDx=0;exitDy=0;entryX=1;entryY=0.5;entryDx=0;entryDy=0;" parent="1" source="feCrvd7pG5GOB3gKW0TG-128" target="feCrvd7pG5GOB3gKW0TG-131" edge="1">
          <mxGeometry width="50" height="50" relative="1" as="geometry">
            <mxPoint x="-3760" y="612.5" as="sourcePoint" />
            <mxPoint x="-3470" y="1030.63330078125" as="targetPoint" />
            <Array as="points">
              <mxPoint x="-3510" y="547.5" />
              <mxPoint x="-3510" y="837.5" />
            </Array>
          </mxGeometry>
        </mxCell>
        <mxCell id="feCrvd7pG5GOB3gKW0TG-140" value="" style="edgeStyle=orthogonalEdgeStyle;rounded=0;orthogonalLoop=1;jettySize=auto;html=1;" parent="1" source="feCrvd7pG5GOB3gKW0TG-141" target="feCrvd7pG5GOB3gKW0TG-142" edge="1">
          <mxGeometry relative="1" as="geometry" />
        </mxCell>
        <mxCell id="feCrvd7pG5GOB3gKW0TG-141" value="res += h * function.apply(x + h/2)" style="shape=parallelogram;perimeter=parallelogramPerimeter;whiteSpace=wrap;html=1;fixedSize=1;" parent="1" vertex="1">
          <mxGeometry x="-3926.5999999999995" y="647.5" width="234.4" height="25" as="geometry" />
        </mxCell>
        <mxCell id="feCrvd7pG5GOB3gKW0TG-142" value="i++" style="shape=parallelogram;perimeter=parallelogramPerimeter;whiteSpace=wrap;html=1;fixedSize=1;" parent="1" vertex="1">
          <mxGeometry x="-3896.8999999999996" y="697.5" width="175" height="35" as="geometry" />
        </mxCell>
        <mxCell id="feCrvd7pG5GOB3gKW0TG-143" value="" style="endArrow=classic;html=1;rounded=0;exitX=0;exitY=0.5;exitDx=0;exitDy=0;entryX=0;entryY=0.5;entryDx=0;entryDy=0;" parent="1" source="feCrvd7pG5GOB3gKW0TG-142" target="feCrvd7pG5GOB3gKW0TG-128" edge="1">
          <mxGeometry width="50" height="50" relative="1" as="geometry">
            <mxPoint x="-3830" y="817.5" as="sourcePoint" />
            <mxPoint x="-4011.066650390625" y="717.5" as="targetPoint" />
            <Array as="points">
              <mxPoint x="-4100" y="717.5" />
              <mxPoint x="-4100" y="547.5" />
            </Array>
          </mxGeometry>
        </mxCell>
        <mxCell id="feCrvd7pG5GOB3gKW0TG-167" style="edgeStyle=orthogonalEdgeStyle;rounded=0;orthogonalLoop=1;jettySize=auto;html=1;entryX=0.5;entryY=0;entryDx=0;entryDy=0;" parent="1" source="feCrvd7pG5GOB3gKW0TG-168" target="feCrvd7pG5GOB3gKW0TG-170" edge="1">
          <mxGeometry relative="1" as="geometry" />
        </mxCell>
        <mxCell id="feCrvd7pG5GOB3gKW0TG-168" value="&lt;font style=&quot;font-size: 18px;&quot;&gt;Начало&lt;/font&gt;" style="ellipse;whiteSpace=wrap;html=1;" parent="1" vertex="1">
          <mxGeometry x="-3140" y="305" width="120" height="80" as="geometry" />
        </mxCell>
        <mxCell id="feCrvd7pG5GOB3gKW0TG-169" style="edgeStyle=orthogonalEdgeStyle;rounded=0;orthogonalLoop=1;jettySize=auto;html=1;exitX=0.5;exitY=1;exitDx=0;exitDy=0;entryX=0.5;entryY=0;entryDx=0;entryDy=0;" parent="1" source="feCrvd7pG5GOB3gKW0TG-170" target="feCrvd7pG5GOB3gKW0TG-173" edge="1">
          <mxGeometry relative="1" as="geometry">
            <mxPoint x="-3096.5" y="505" as="targetPoint" />
          </mxGeometry>
        </mxCell>
        <mxCell id="feCrvd7pG5GOB3gKW0TG-170" value="&lt;font style=&quot;font-size: 12px;&quot;&gt;Инициализация переменных: res = 0, h = (b - a) / n, i = 0&lt;/font&gt;&lt;div&gt;&lt;div&gt;&lt;font style=&quot;font-size: 12px;&quot;&gt;Переменные из аргументов:function, a, b, n, modify&amp;nbsp;&lt;/font&gt;&lt;/div&gt;&lt;/div&gt;" style="shape=parallelogram;perimeter=parallelogramPerimeter;whiteSpace=wrap;html=1;fixedSize=1;" parent="1" vertex="1">
          <mxGeometry x="-3369" y="415" width="590" height="60" as="geometry" />
        </mxCell>
        <mxCell id="feCrvd7pG5GOB3gKW0TG-171" value="Метод правых прямоугольников" style="rounded=0;whiteSpace=wrap;html=1;" parent="1" vertex="1">
          <mxGeometry x="-3144.5" y="205" width="134.5" height="60" as="geometry" />
        </mxCell>
        <mxCell id="feCrvd7pG5GOB3gKW0TG-172" style="edgeStyle=orthogonalEdgeStyle;rounded=0;orthogonalLoop=1;jettySize=auto;html=1;exitX=0.5;exitY=1;exitDx=0;exitDy=0;entryX=0.5;entryY=0;entryDx=0;entryDy=0;" parent="1" source="feCrvd7pG5GOB3gKW0TG-173" target="feCrvd7pG5GOB3gKW0TG-175" edge="1">
          <mxGeometry relative="1" as="geometry" />
        </mxCell>
        <mxCell id="feCrvd7pG5GOB3gKW0TG-173" value="i&amp;lt;n" style="shape=hexagon;perimeter=hexagonPerimeter2;whiteSpace=wrap;html=1;fixedSize=1;size=40;" parent="1" vertex="1">
          <mxGeometry x="-3209.3999999999996" y="515" width="200" height="55" as="geometry" />
        </mxCell>
        <mxCell id="feCrvd7pG5GOB3gKW0TG-174" value="" style="edgeStyle=orthogonalEdgeStyle;rounded=0;orthogonalLoop=1;jettySize=auto;html=1;" parent="1" source="feCrvd7pG5GOB3gKW0TG-175" target="feCrvd7pG5GOB3gKW0TG-186" edge="1">
          <mxGeometry relative="1" as="geometry" />
        </mxCell>
        <mxCell id="feCrvd7pG5GOB3gKW0TG-175" value="x = a + h * i" style="shape=parallelogram;perimeter=parallelogramPerimeter;whiteSpace=wrap;html=1;fixedSize=1;" parent="1" vertex="1">
          <mxGeometry x="-3196.8999999999996" y="590" width="175" height="35" as="geometry" />
        </mxCell>
        <mxCell id="feCrvd7pG5GOB3gKW0TG-176" value="Math.abs(res) &amp;gt; 60000" style="rhombus;whiteSpace=wrap;html=1;" parent="1" vertex="1">
          <mxGeometry x="-3252.4700000000003" y="790" width="272.25" height="80" as="geometry" />
        </mxCell>
        <mxCell id="feCrvd7pG5GOB3gKW0TG-177" value="" style="edgeStyle=orthogonalEdgeStyle;rounded=0;orthogonalLoop=1;jettySize=auto;html=1;" parent="1" source="feCrvd7pG5GOB3gKW0TG-178" target="feCrvd7pG5GOB3gKW0TG-183" edge="1">
          <mxGeometry relative="1" as="geometry" />
        </mxCell>
        <mxCell id="feCrvd7pG5GOB3gKW0TG-178" value="Выкинуть ошибку" style="rounded=0;whiteSpace=wrap;html=1;" parent="1" vertex="1">
          <mxGeometry x="-3236.34" y="900" width="110" height="20.04" as="geometry" />
        </mxCell>
        <mxCell id="feCrvd7pG5GOB3gKW0TG-179" value="" style="endArrow=classic;html=1;rounded=0;exitX=0.5;exitY=1;exitDx=0;exitDy=0;entryX=0.5;entryY=0;entryDx=0;entryDy=0;" parent="1" source="feCrvd7pG5GOB3gKW0TG-176" target="feCrvd7pG5GOB3gKW0TG-178" edge="1">
          <mxGeometry width="50" height="50" relative="1" as="geometry">
            <mxPoint x="-3126.34" y="820" as="sourcePoint" />
            <mxPoint x="-3076.34" y="770" as="targetPoint" />
          </mxGeometry>
        </mxCell>
        <mxCell id="feCrvd7pG5GOB3gKW0TG-180" value="" style="endArrow=classic;html=1;rounded=0;exitX=0.5;exitY=1;exitDx=0;exitDy=0;" parent="1" source="feCrvd7pG5GOB3gKW0TG-176" target="feCrvd7pG5GOB3gKW0TG-182" edge="1">
          <mxGeometry width="50" height="50" relative="1" as="geometry">
            <mxPoint x="-2936.34" y="980" as="sourcePoint" />
            <mxPoint x="-2916.34" y="860" as="targetPoint" />
          </mxGeometry>
        </mxCell>
        <mxCell id="feCrvd7pG5GOB3gKW0TG-181" value="" style="edgeStyle=orthogonalEdgeStyle;rounded=0;orthogonalLoop=1;jettySize=auto;html=1;" parent="1" source="feCrvd7pG5GOB3gKW0TG-182" target="feCrvd7pG5GOB3gKW0TG-183" edge="1">
          <mxGeometry relative="1" as="geometry" />
        </mxCell>
        <mxCell id="feCrvd7pG5GOB3gKW0TG-182" value="return res" style="rounded=0;whiteSpace=wrap;html=1;" parent="1" vertex="1">
          <mxGeometry x="-3044.7200000000003" y="895" width="78.38" height="30.04" as="geometry" />
        </mxCell>
        <mxCell id="feCrvd7pG5GOB3gKW0TG-183" value="конец" style="ellipse;whiteSpace=wrap;html=1;" parent="1" vertex="1">
          <mxGeometry x="-3154" y="1010" width="120" height="80" as="geometry" />
        </mxCell>
        <mxCell id="feCrvd7pG5GOB3gKW0TG-184" value="" style="endArrow=classic;html=1;rounded=0;exitX=1;exitY=0.5;exitDx=0;exitDy=0;entryX=1;entryY=0.5;entryDx=0;entryDy=0;" parent="1" source="feCrvd7pG5GOB3gKW0TG-173" target="feCrvd7pG5GOB3gKW0TG-176" edge="1">
          <mxGeometry width="50" height="50" relative="1" as="geometry">
            <mxPoint x="-3060" y="605" as="sourcePoint" />
            <mxPoint x="-2770" y="1023.13330078125" as="targetPoint" />
            <Array as="points">
              <mxPoint x="-2810" y="540" />
              <mxPoint x="-2810" y="830" />
            </Array>
          </mxGeometry>
        </mxCell>
        <mxCell id="feCrvd7pG5GOB3gKW0TG-185" value="" style="edgeStyle=orthogonalEdgeStyle;rounded=0;orthogonalLoop=1;jettySize=auto;html=1;" parent="1" source="feCrvd7pG5GOB3gKW0TG-186" target="feCrvd7pG5GOB3gKW0TG-187" edge="1">
          <mxGeometry relative="1" as="geometry" />
        </mxCell>
        <mxCell id="feCrvd7pG5GOB3gKW0TG-186" value="res += h * function.apply(x + h)" style="shape=parallelogram;perimeter=parallelogramPerimeter;whiteSpace=wrap;html=1;fixedSize=1;" parent="1" vertex="1">
          <mxGeometry x="-3226.5999999999995" y="640" width="234.4" height="25" as="geometry" />
        </mxCell>
        <mxCell id="feCrvd7pG5GOB3gKW0TG-187" value="i++" style="shape=parallelogram;perimeter=parallelogramPerimeter;whiteSpace=wrap;html=1;fixedSize=1;" parent="1" vertex="1">
          <mxGeometry x="-3196.8999999999996" y="690" width="175" height="35" as="geometry" />
        </mxCell>
        <mxCell id="feCrvd7pG5GOB3gKW0TG-188" value="" style="endArrow=classic;html=1;rounded=0;exitX=0;exitY=0.5;exitDx=0;exitDy=0;entryX=0;entryY=0.5;entryDx=0;entryDy=0;" parent="1" source="feCrvd7pG5GOB3gKW0TG-187" target="feCrvd7pG5GOB3gKW0TG-173" edge="1">
          <mxGeometry width="50" height="50" relative="1" as="geometry">
            <mxPoint x="-3130" y="810" as="sourcePoint" />
            <mxPoint x="-3311.066650390625" y="710" as="targetPoint" />
            <Array as="points">
              <mxPoint x="-3400" y="710" />
              <mxPoint x="-3400" y="540" />
            </Array>
          </mxGeometry>
        </mxCell>
        <mxCell id="feCrvd7pG5GOB3gKW0TG-189" style="edgeStyle=orthogonalEdgeStyle;rounded=0;orthogonalLoop=1;jettySize=auto;html=1;entryX=0.5;entryY=0;entryDx=0;entryDy=0;" parent="1" source="feCrvd7pG5GOB3gKW0TG-190" target="feCrvd7pG5GOB3gKW0TG-192" edge="1">
          <mxGeometry relative="1" as="geometry" />
        </mxCell>
        <mxCell id="feCrvd7pG5GOB3gKW0TG-190" value="&lt;font style=&quot;font-size: 18px;&quot;&gt;Начало&lt;/font&gt;" style="ellipse;whiteSpace=wrap;html=1;" parent="1" vertex="1">
          <mxGeometry x="-2410" y="290" width="120" height="80" as="geometry" />
        </mxCell>
        <mxCell id="feCrvd7pG5GOB3gKW0TG-191" style="edgeStyle=orthogonalEdgeStyle;rounded=0;orthogonalLoop=1;jettySize=auto;html=1;exitX=0.5;exitY=1;exitDx=0;exitDy=0;entryX=0.5;entryY=0;entryDx=0;entryDy=0;" parent="1" source="feCrvd7pG5GOB3gKW0TG-192" target="feCrvd7pG5GOB3gKW0TG-194" edge="1">
          <mxGeometry relative="1" as="geometry">
            <mxPoint x="-2366.5" y="490" as="targetPoint" />
          </mxGeometry>
        </mxCell>
        <mxCell id="feCrvd7pG5GOB3gKW0TG-192" value="&lt;font style=&quot;font-size: 12px;&quot;&gt;Инициализация переменных: res = 0, h = (b - a) / n, i = 1&lt;/font&gt;&lt;div&gt;&lt;div&gt;&lt;font style=&quot;font-size: 12px;&quot;&gt;Переменные из аргументов:function, a, b, n, modify&amp;nbsp;&lt;/font&gt;&lt;/div&gt;&lt;/div&gt;" style="shape=parallelogram;perimeter=parallelogramPerimeter;whiteSpace=wrap;html=1;fixedSize=1;" parent="1" vertex="1">
          <mxGeometry x="-2639" y="400" width="590" height="60" as="geometry" />
        </mxCell>
        <mxCell id="feCrvd7pG5GOB3gKW0TG-193" style="edgeStyle=orthogonalEdgeStyle;rounded=0;orthogonalLoop=1;jettySize=auto;html=1;exitX=0.5;exitY=1;exitDx=0;exitDy=0;entryX=0.5;entryY=0;entryDx=0;entryDy=0;" parent="1" source="feCrvd7pG5GOB3gKW0TG-194" target="feCrvd7pG5GOB3gKW0TG-196" edge="1">
          <mxGeometry relative="1" as="geometry" />
        </mxCell>
        <mxCell id="feCrvd7pG5GOB3gKW0TG-194" value="i&amp;lt;n" style="shape=hexagon;perimeter=hexagonPerimeter2;whiteSpace=wrap;html=1;fixedSize=1;size=40;" parent="1" vertex="1">
          <mxGeometry x="-2479.3999999999996" y="500" width="200" height="55" as="geometry" />
        </mxCell>
        <mxCell id="feCrvd7pG5GOB3gKW0TG-195" value="" style="edgeStyle=orthogonalEdgeStyle;rounded=0;orthogonalLoop=1;jettySize=auto;html=1;" parent="1" source="feCrvd7pG5GOB3gKW0TG-196" target="feCrvd7pG5GOB3gKW0TG-207" edge="1">
          <mxGeometry relative="1" as="geometry" />
        </mxCell>
        <mxCell id="feCrvd7pG5GOB3gKW0TG-196" value="x = a + h * i" style="shape=parallelogram;perimeter=parallelogramPerimeter;whiteSpace=wrap;html=1;fixedSize=1;" parent="1" vertex="1">
          <mxGeometry x="-2466.8999999999996" y="575" width="175" height="35" as="geometry" />
        </mxCell>
        <mxCell id="feCrvd7pG5GOB3gKW0TG-197" value="Math.abs(h/3 * res) &amp;gt; 60000" style="rhombus;whiteSpace=wrap;html=1;" parent="1" vertex="1">
          <mxGeometry x="-2548.3300000000004" y="1190" width="272.25" height="80" as="geometry" />
        </mxCell>
        <mxCell id="feCrvd7pG5GOB3gKW0TG-198" value="" style="edgeStyle=orthogonalEdgeStyle;rounded=0;orthogonalLoop=1;jettySize=auto;html=1;" parent="1" source="feCrvd7pG5GOB3gKW0TG-199" target="feCrvd7pG5GOB3gKW0TG-204" edge="1">
          <mxGeometry relative="1" as="geometry" />
        </mxCell>
        <mxCell id="feCrvd7pG5GOB3gKW0TG-199" value="Выкинуть ошибку" style="rounded=0;whiteSpace=wrap;html=1;" parent="1" vertex="1">
          <mxGeometry x="-2532.2000000000003" y="1300" width="110" height="20.04" as="geometry" />
        </mxCell>
        <mxCell id="feCrvd7pG5GOB3gKW0TG-200" value="" style="endArrow=classic;html=1;rounded=0;exitX=0.5;exitY=1;exitDx=0;exitDy=0;entryX=0.5;entryY=0;entryDx=0;entryDy=0;" parent="1" source="feCrvd7pG5GOB3gKW0TG-197" target="feCrvd7pG5GOB3gKW0TG-199" edge="1">
          <mxGeometry width="50" height="50" relative="1" as="geometry">
            <mxPoint x="-2422.2000000000003" y="1220" as="sourcePoint" />
            <mxPoint x="-2372.2000000000003" y="1170" as="targetPoint" />
          </mxGeometry>
        </mxCell>
        <mxCell id="feCrvd7pG5GOB3gKW0TG-201" value="" style="endArrow=classic;html=1;rounded=0;exitX=0.5;exitY=1;exitDx=0;exitDy=0;" parent="1" source="feCrvd7pG5GOB3gKW0TG-197" target="feCrvd7pG5GOB3gKW0TG-203" edge="1">
          <mxGeometry width="50" height="50" relative="1" as="geometry">
            <mxPoint x="-2232.2000000000003" y="1380" as="sourcePoint" />
            <mxPoint x="-2212.2000000000003" y="1260" as="targetPoint" />
          </mxGeometry>
        </mxCell>
        <mxCell id="feCrvd7pG5GOB3gKW0TG-202" value="" style="edgeStyle=orthogonalEdgeStyle;rounded=0;orthogonalLoop=1;jettySize=auto;html=1;" parent="1" source="feCrvd7pG5GOB3gKW0TG-203" target="feCrvd7pG5GOB3gKW0TG-204" edge="1">
          <mxGeometry relative="1" as="geometry" />
        </mxCell>
        <mxCell id="feCrvd7pG5GOB3gKW0TG-203" value="return h/3 * res" style="rounded=0;whiteSpace=wrap;html=1;" parent="1" vertex="1">
          <mxGeometry x="-2340.5800000000004" y="1295" width="78.38" height="30.04" as="geometry" />
        </mxCell>
        <mxCell id="feCrvd7pG5GOB3gKW0TG-204" value="конец" style="ellipse;whiteSpace=wrap;html=1;" parent="1" vertex="1">
          <mxGeometry x="-2449.86" y="1410" width="120" height="80" as="geometry" />
        </mxCell>
        <mxCell id="feCrvd7pG5GOB3gKW0TG-206" value="" style="edgeStyle=orthogonalEdgeStyle;rounded=0;orthogonalLoop=1;jettySize=auto;html=1;" parent="1" source="feCrvd7pG5GOB3gKW0TG-207" target="feCrvd7pG5GOB3gKW0TG-208" edge="1">
          <mxGeometry relative="1" as="geometry" />
        </mxCell>
        <mxCell id="feCrvd7pG5GOB3gKW0TG-207" value="res += 4 * function.apply(x)" style="shape=parallelogram;perimeter=parallelogramPerimeter;whiteSpace=wrap;html=1;fixedSize=1;" parent="1" vertex="1">
          <mxGeometry x="-2496.5999999999995" y="625" width="234.4" height="25" as="geometry" />
        </mxCell>
        <mxCell id="feCrvd7pG5GOB3gKW0TG-208" value="i+=2" style="shape=parallelogram;perimeter=parallelogramPerimeter;whiteSpace=wrap;html=1;fixedSize=1;" parent="1" vertex="1">
          <mxGeometry x="-2466.8999999999996" y="675" width="175" height="35" as="geometry" />
        </mxCell>
        <mxCell id="feCrvd7pG5GOB3gKW0TG-209" value="" style="endArrow=classic;html=1;rounded=0;exitX=0;exitY=0.5;exitDx=0;exitDy=0;entryX=0;entryY=0.5;entryDx=0;entryDy=0;" parent="1" source="feCrvd7pG5GOB3gKW0TG-208" target="feCrvd7pG5GOB3gKW0TG-194" edge="1">
          <mxGeometry width="50" height="50" relative="1" as="geometry">
            <mxPoint x="-2400" y="795" as="sourcePoint" />
            <mxPoint x="-2581.066650390625" y="695" as="targetPoint" />
            <Array as="points">
              <mxPoint x="-2670" y="695" />
              <mxPoint x="-2670" y="525" />
            </Array>
          </mxGeometry>
        </mxCell>
        <mxCell id="feCrvd7pG5GOB3gKW0TG-210" style="edgeStyle=orthogonalEdgeStyle;rounded=0;orthogonalLoop=1;jettySize=auto;html=1;exitX=0.5;exitY=1;exitDx=0;exitDy=0;entryX=0.5;entryY=0;entryDx=0;entryDy=0;" parent="1" source="feCrvd7pG5GOB3gKW0TG-211" target="feCrvd7pG5GOB3gKW0TG-213" edge="1">
          <mxGeometry relative="1" as="geometry" />
        </mxCell>
        <mxCell id="feCrvd7pG5GOB3gKW0TG-211" value="i&amp;lt;n" style="shape=hexagon;perimeter=hexagonPerimeter2;whiteSpace=wrap;html=1;fixedSize=1;size=40;" parent="1" vertex="1">
          <mxGeometry x="-2493.2799999999997" y="825" width="200" height="55" as="geometry" />
        </mxCell>
        <mxCell id="feCrvd7pG5GOB3gKW0TG-212" value="" style="edgeStyle=orthogonalEdgeStyle;rounded=0;orthogonalLoop=1;jettySize=auto;html=1;" parent="1" source="feCrvd7pG5GOB3gKW0TG-213" target="feCrvd7pG5GOB3gKW0TG-215" edge="1">
          <mxGeometry relative="1" as="geometry" />
        </mxCell>
        <mxCell id="feCrvd7pG5GOB3gKW0TG-213" value="x = a + h * i" style="shape=parallelogram;perimeter=parallelogramPerimeter;whiteSpace=wrap;html=1;fixedSize=1;" parent="1" vertex="1">
          <mxGeometry x="-2480.7799999999997" y="900" width="175" height="35" as="geometry" />
        </mxCell>
        <mxCell id="feCrvd7pG5GOB3gKW0TG-214" value="" style="edgeStyle=orthogonalEdgeStyle;rounded=0;orthogonalLoop=1;jettySize=auto;html=1;" parent="1" source="feCrvd7pG5GOB3gKW0TG-215" target="feCrvd7pG5GOB3gKW0TG-216" edge="1">
          <mxGeometry relative="1" as="geometry" />
        </mxCell>
        <mxCell id="feCrvd7pG5GOB3gKW0TG-215" value="res += 2 * function.apply(x)" style="shape=parallelogram;perimeter=parallelogramPerimeter;whiteSpace=wrap;html=1;fixedSize=1;" parent="1" vertex="1">
          <mxGeometry x="-2510.4799999999996" y="950" width="234.4" height="25" as="geometry" />
        </mxCell>
        <mxCell id="feCrvd7pG5GOB3gKW0TG-229" value="" style="edgeStyle=orthogonalEdgeStyle;rounded=0;orthogonalLoop=1;jettySize=auto;html=1;exitX=1;exitY=0.5;exitDx=0;exitDy=0;" parent="1" source="feCrvd7pG5GOB3gKW0TG-211" target="feCrvd7pG5GOB3gKW0TG-227" edge="1">
          <mxGeometry relative="1" as="geometry">
            <mxPoint x="-2220" y="1040" as="sourcePoint" />
            <Array as="points">
              <mxPoint x="-2250" y="853" />
              <mxPoint x="-2250" y="1087" />
            </Array>
          </mxGeometry>
        </mxCell>
        <mxCell id="feCrvd7pG5GOB3gKW0TG-216" value="i+=2" style="shape=parallelogram;perimeter=parallelogramPerimeter;whiteSpace=wrap;html=1;fixedSize=1;" parent="1" vertex="1">
          <mxGeometry x="-2480.7799999999997" y="1000" width="175" height="35" as="geometry" />
        </mxCell>
        <mxCell id="feCrvd7pG5GOB3gKW0TG-217" value="" style="endArrow=classic;html=1;rounded=0;exitX=0;exitY=0.5;exitDx=0;exitDy=0;entryX=0;entryY=0.5;entryDx=0;entryDy=0;" parent="1" source="feCrvd7pG5GOB3gKW0TG-216" target="feCrvd7pG5GOB3gKW0TG-211" edge="1">
          <mxGeometry width="50" height="50" relative="1" as="geometry">
            <mxPoint x="-2413.88" y="1120" as="sourcePoint" />
            <mxPoint x="-2594.946650390625" y="1020" as="targetPoint" />
            <Array as="points">
              <mxPoint x="-2683.88" y="1020" />
              <mxPoint x="-2683.88" y="850" />
            </Array>
          </mxGeometry>
        </mxCell>
        <mxCell id="feCrvd7pG5GOB3gKW0TG-235" value="" style="edgeStyle=orthogonalEdgeStyle;rounded=0;orthogonalLoop=1;jettySize=auto;html=1;" parent="1" source="feCrvd7pG5GOB3gKW0TG-226" target="feCrvd7pG5GOB3gKW0TG-211" edge="1">
          <mxGeometry relative="1" as="geometry" />
        </mxCell>
        <mxCell id="feCrvd7pG5GOB3gKW0TG-226" value="i=2" style="shape=parallelogram;perimeter=parallelogramPerimeter;whiteSpace=wrap;html=1;fixedSize=1;" parent="1" vertex="1">
          <mxGeometry x="-2480.9999999999995" y="762.5" width="175" height="35" as="geometry" />
        </mxCell>
        <mxCell id="feCrvd7pG5GOB3gKW0TG-236" value="" style="edgeStyle=orthogonalEdgeStyle;rounded=0;orthogonalLoop=1;jettySize=auto;html=1;" parent="1" source="feCrvd7pG5GOB3gKW0TG-227" target="feCrvd7pG5GOB3gKW0TG-197" edge="1">
          <mxGeometry relative="1" as="geometry" />
        </mxCell>
        <mxCell id="feCrvd7pG5GOB3gKW0TG-227" value="res += function.apply(b)" style="shape=parallelogram;perimeter=parallelogramPerimeter;whiteSpace=wrap;html=1;fixedSize=1;" parent="1" vertex="1">
          <mxGeometry x="-2480.9999999999995" y="1070" width="175" height="35" as="geometry" />
        </mxCell>
        <mxCell id="feCrvd7pG5GOB3gKW0TG-233" value="" style="endArrow=classic;html=1;rounded=0;entryX=1;entryY=0.5;entryDx=0;entryDy=0;exitX=1;exitY=0.5;exitDx=0;exitDy=0;" parent="1" source="feCrvd7pG5GOB3gKW0TG-194" target="feCrvd7pG5GOB3gKW0TG-226" edge="1">
          <mxGeometry width="50" height="50" relative="1" as="geometry">
            <mxPoint x="-2160" y="550" as="sourcePoint" />
            <mxPoint x="-2380" y="820" as="targetPoint" />
            <Array as="points">
              <mxPoint x="-2150" y="528" />
              <mxPoint x="-2150" y="780" />
            </Array>
          </mxGeometry>
        </mxCell>
      </root>
    </mxGraphModel>
  </diagram>
</mxfile>
